<?xml version="1.0" encoding="utf-8"?>
<!-- Generator: Adobe Illustrator 24.0.1, SVG Export Plug-In . SVG Version: 6.00 Build 0)  -->
<svg version="1.1" id="Layer_1" xmlns="http://www.w3.org/2000/svg" xmlns:xlink="http://www.w3.org/1999/xlink" x="0px" y="0px"
	 viewBox="0 0 72 72" style="enable-background:new 0 0 72 72;" xml:space="preserve">
<style type="text/css">
	.st0{fill:#FFFFFF;}
</style>
<path class="st0" d="M36,3.5C53.9,3.5,68.5,18,68.5,36C68.5,53.9,54,68.5,36,68.5C18.1,68.5,3.5,53.9,3.5,36S18.1,3.5,36,3.5 M36,0
	C16.1,0,0,16.1,0,36s16.1,36,36,36s36-16.1,36-36S55.9,0,36,0L36,0z"/>
<g>
	<path class="st0" d="M41.1,15.5l-2.7,27.6h-5L31,15.5C31,15.5,41.1,15.5,41.1,15.5z M39.9,47.4v9.1h-8.1v-9.1H39.9z"/>
</g>
</svg>
