<?xml version="1.0" encoding="utf-8"?>
<!-- Generator: Adobe Illustrator 24.0.1, SVG Export Plug-In . SVG Version: 6.00 Build 0)  -->
<svg version="1.1" id="Layer_1" xmlns="http://www.w3.org/2000/svg" xmlns:xlink="http://www.w3.org/1999/xlink" x="0px" y="0px"
	 viewBox="0 0 72 72" style="enable-background:new 0 0 72 72;" xml:space="preserve">
<style type="text/css">
	.st0{fill:#FFFFFF;}
</style>
<path class="st0" d="M36,3.5C53.9,3.5,68.5,18,68.5,36C68.5,53.9,54,68.5,36,68.5C18.1,68.5,3.5,53.9,3.5,36S18.1,3.5,36,3.5 M36,0
	C16.1,0,0,16.1,0,36s16.1,36,36,36s36-16.1,36-36S55.9,0,36,0L36,0z"/>
<g>
	<path class="st0" d="M41.5,47.4c-4.2,5.9-8.2,9.1-11.9,9.1c-3.4,0-4-2.5-3-4.8l6.4-14.6c1.9-4.4-2.1-1.5-5.4,2.7l-1.3-1.3
		c4-5.9,8-9.1,11.7-9.1c3.4,0,4.2,2.5,3.2,4.8L35,48.9c-1.9,4.4,1.6,1.9,5.2-2.7L41.5,47.4z M35.8,20.3c0-2.7,2.4-4.8,5-4.8
		c2.7,0,5,2.1,5,4.8c0,2.6-2.4,4.8-5,4.8C38.1,25,35.8,22.9,35.8,20.3z"/>
</g>
</svg>
