<?xml version="1.0" encoding="utf-8"?>
<!-- Generator: Adobe Illustrator 24.0.1, SVG Export Plug-In . SVG Version: 6.00 Build 0)  -->
<svg version="1.1" id="Layer_1" xmlns="http://www.w3.org/2000/svg" xmlns:xlink="http://www.w3.org/1999/xlink" x="0px" y="0px"
	 viewBox="0 0 72 72" style="enable-background:new 0 0 72 72;" xml:space="preserve">
<style type="text/css">
	.st0{fill:#FFFFFF;}
</style>
<path class="st0" d="M36,3.5C53.9,3.5,68.5,18,68.5,36C68.5,53.9,54,68.5,36,68.5C18.1,68.5,3.5,53.9,3.5,36S18.1,3.5,36,3.5 M36,0
	C16.1,0,0,16.1,0,36s16.1,36,36,36s36-16.1,36-36S55.9,0,36,0L36,0z"/>
<g>
	<path class="st0" d="M54.5,17.2l1.1,1.6C46,27.6,40.2,33.8,30.3,52L28,53.5c-1.9,1.3-3.2,2.3-3.9,3c-0.3-1-0.9-2.6-1.8-4.8l-0.9-2
		c-1.2-2.9-2.4-5.1-3.5-6.4c-1.1-1.4-2.3-2.3-3.6-2.8c2.2-2.4,4.3-3.5,6.2-3.5c1.6,0,3.4,2.2,5.3,6.5l1,2.2
		c3.5-5.9,8-11.7,13.5-17.2S49.3,20.1,54.5,17.2z"/>
</g>
</svg>
