<?xml version="1.0" encoding="utf-8"?>
<!-- Generator: Adobe Illustrator 24.0.1, SVG Export Plug-In . SVG Version: 6.00 Build 0)  -->
<svg version="1.1" id="Layer_1" xmlns="http://www.w3.org/2000/svg" xmlns:xlink="http://www.w3.org/1999/xlink" x="0px" y="0px"
	 viewBox="0 0 72 72" style="enable-background:new 0 0 72 72;" xml:space="preserve">
<style type="text/css">
	.st0{fill:#FFFFFF;}
</style>
<g>
	<path class="st0" d="M41,22.6l-2.7,27.6h-5L31,22.6C31,22.6,41,22.6,41,22.6z M39.9,54.5v9.1h-8.1v-9.1H39.9z"/>
</g>
<path class="st0" d="M36,3.8c0.3,0,0.4,0.2,0.5,0.3l31.8,63.7c0,0.1,0.1,0.3,0,0.5c-0.2,0.2-0.4,0.2-0.4,0.2H4.2
	c-0.1,0-0.3,0-0.4-0.2c-0.2-0.2-0.1-0.4,0-0.5L35.5,4.1C35.6,4,35.7,3.8,36,3.8 M36,0.3c-1.4,0-2.9,0.7-3.6,2.2L0.6,66.2
	C-0.7,68.9,1.2,72,4.2,72h63.6c3,0,4.9-3.1,3.6-5.8L39.6,2.5C38.9,1,37.4,0.3,36,0.3L36,0.3z"/>
</svg>
